<?xml version="1.0" encoding="UTF-8" standalone="no"?>
<!-- Generator: Adobe Illustrator 26.3.1, SVG Export Plug-In . SVG Version: 6.00 Build 0)  -->

<svg
   version="1.1"
   id="Layer_1"
   x="0px"
   y="0px"
   viewBox="0 0 36.060002 13"
   xml:space="preserve"
   sodipodi:docname="NMBU_logo.svg"
   width="36.060001"
   height="13"
   inkscape:version="1.2.1 (9c6d41e, 2022-07-14)"
   xmlns:inkscape="http://www.inkscape.org/namespaces/inkscape"
   xmlns:sodipodi="http://sodipodi.sourceforge.net/DTD/sodipodi-0.dtd"
   xmlns="http://www.w3.org/2000/svg"
   xmlns:svg="http://www.w3.org/2000/svg"><defs
   id="defs81" /><sodipodi:namedview
   id="namedview79"
   pagecolor="#ffffff"
   bordercolor="#000000"
   borderopacity="0.25"
   inkscape:showpageshadow="2"
   inkscape:pageopacity="0.0"
   inkscape:pagecheckerboard="0"
   inkscape:deskcolor="#d1d1d1"
   showgrid="false"
   inkscape:zoom="7.6723016"
   inkscape:cx="28.544238"
   inkscape:cy="14.532797"
   inkscape:window-width="1920"
   inkscape:window-height="1147"
   inkscape:window-x="1512"
   inkscape:window-y="25"
   inkscape:window-maximized="0"
   inkscape:current-layer="Layer_1" />
<style
   type="text/css"
   id="style2">
	.st0{fill:#FFFFFF;}
	.st1{fill:#008571;}
</style>
<g
   id="g76"
   transform="translate(-11.6,-8.76)">
	<path
   class="st1"
   d="m 13.31,18.85 h 0.64 v 2.91 h -0.63 l -1.08,-1.72 v 1.72 H 11.6 v -2.91 h 0.65 l 1.07,1.69 v -1.69 z m 5.9,-0.07 v -2.91 h -0.77 l -0.68,1.83 -0.67,-1.83 h -0.8 v 2.91 h 0.64 v -1.65 l 0.59,1.61 h 0.47 l 0.59,-1.59 v 1.63 z M 27.15,8.76 v 1.77 c 0,0.27 -0.09,0.59 -0.51,0.59 -0.42,0 -0.51,-0.32 -0.51,-0.59 V 8.76 h -0.65 v 1.78 c 0,0.73 0.44,1.19 1.16,1.19 0.73,0 1.16,-0.44 1.16,-1.19 V 8.76 Z m -4.32,4.41 c 0.2,0.14 0.32,0.37 0.32,0.63 0,0.29 -0.11,0.52 -0.31,0.68 -0.23,0.18 -0.51,0.2 -0.78,0.2 h -1.17 v -2.92 h 1.17 c 0.29,0 0.51,0.05 0.68,0.16 0.22,0.14 0.35,0.4 0.35,0.66 0.01,0.2 -0.07,0.44 -0.26,0.59 z m -1.29,-0.28 h 0.56 c 0.31,0 0.34,-0.15 0.34,-0.27 0,-0.18 -0.12,-0.28 -0.35,-0.28 h -0.55 z m 0.96,0.9 c 0,-0.08 0,-0.33 -0.4,-0.33 h -0.56 v 0.62 h 0.55 c 0.15,0 0.41,-0.04 0.41,-0.29 z m 3.15,3.24 h -3.47 v -1.16 h -0.63 v 1.16 h -1.16 v 0.63 h 1.16 v 3.47 h -6.19 v 0.63 h 6.58 c 0.13,0 0.24,-0.11 0.24,-0.24 v -3.86 h 3.86 c 0.13,0 0.24,-0.11 0.24,-0.24 v -4.64 h -0.63 z m -8.24,-2.35 h 0.63 v -1.17 h 1.17 V 12.88 H 18.04 V 9.41 h 6.03 V 8.78 h -6.42 c -0.13,0 -0.24,0.11 -0.24,0.24 v 3.86 h -3.86 c -0.13,0 -0.24,0.11 -0.24,0.24 v 4.54 h 0.63 v -4.15 h 3.47 z"
   id="path4" />
	<g
   id="g74">
		<g
   id="g72">
			<path
   d="m 32.89,12.72 -0.93,-1.43 v 1.43 h -0.32 v -1.88 h 0.41 l 0.86,1.34 v -1.34 h 0.32 v 1.88 z"
   id="path6" />
			<path
   d="m 34.91,12.07 c 0,0.4 -0.28,0.69 -0.67,0.69 -0.38,0 -0.67,-0.29 -0.67,-0.69 0,-0.4 0.28,-0.69 0.67,-0.69 0.39,0.01 0.67,0.3 0.67,0.69 z m -0.31,0 c 0,-0.27 -0.17,-0.41 -0.36,-0.41 -0.19,0 -0.36,0.14 -0.36,0.41 0,0.27 0.17,0.41 0.36,0.41 0.19,0 0.36,-0.14 0.36,-0.41 z"
   id="path8" />
			<path
   d="m 36,11.73 c -0.04,-0.01 -0.07,-0.01 -0.1,-0.01 -0.24,0 -0.35,0.14 -0.35,0.38 v 0.62 h -0.31 v -1.29 h 0.3 v 0.21 c 0.06,-0.14 0.2,-0.22 0.37,-0.22 0.04,0 0.07,0.01 0.08,0.01 v 0.3 z"
   id="path10" />
			<path
   d="m 37.37,11.43 0.3,0.89 0.26,-0.89 h 0.31 l -0.41,1.29 h -0.31 l -0.32,-0.93 -0.31,0.93 h -0.32 l -0.42,-1.29 h 0.33 l 0.26,0.89 0.3,-0.89 z"
   id="path12" />
			<path
   d="m 39.63,12.35 c -0.07,0.23 -0.27,0.41 -0.58,0.41 -0.35,0 -0.66,-0.25 -0.66,-0.69 0,-0.41 0.3,-0.68 0.63,-0.68 0.4,0 0.63,0.26 0.63,0.67 0,0.05 0,0.09 -0.01,0.1 h -0.95 c 0.01,0.2 0.16,0.34 0.35,0.34 0.19,0 0.28,-0.1 0.32,-0.23 z m -0.3,-0.42 c -0.01,-0.15 -0.11,-0.29 -0.32,-0.29 -0.19,0 -0.31,0.15 -0.32,0.29 z"
   id="path14" />
			<path
   d="m 40.16,12.72 c 0.02,0.16 0.15,0.28 0.32,0.28 0.24,0 0.37,-0.12 0.37,-0.39 v -0.14 c -0.06,0.1 -0.19,0.19 -0.38,0.19 -0.34,0 -0.6,-0.27 -0.6,-0.63 0,-0.35 0.24,-0.63 0.6,-0.63 0.2,0 0.33,0.08 0.38,0.19 v -0.16 h 0.3 v 1.17 c 0,0.35 -0.18,0.67 -0.66,0.67 -0.34,0 -0.58,-0.21 -0.62,-0.47 z m 0.7,-0.69 c 0,-0.22 -0.14,-0.36 -0.33,-0.36 -0.2,0 -0.34,0.14 -0.34,0.36 0,0.23 0.13,0.37 0.34,0.37 0.2,0 0.33,-0.15 0.33,-0.37 z"
   id="path16" />
			<path
   d="m 41.72,10.77 c 0.11,0 0.2,0.09 0.2,0.2 0,0.11 -0.09,0.2 -0.2,0.2 -0.11,0 -0.2,-0.09 -0.2,-0.2 0,-0.11 0.09,-0.2 0.2,-0.2 z m -0.15,1.95 v -1.29 h 0.31 v 1.29 z"
   id="path18" />
			<path
   d="m 42.62,11.98 0.33,-0.05 c 0.07,-0.01 0.1,-0.05 0.1,-0.09 0,-0.11 -0.07,-0.2 -0.24,-0.2 -0.16,0 -0.25,0.1 -0.27,0.23 l -0.28,-0.06 c 0.02,-0.22 0.23,-0.42 0.54,-0.42 0.4,0 0.55,0.23 0.55,0.48 v 0.64 c 0,0.12 0.01,0.19 0.02,0.21 h -0.29 c 0,-0.01 -0.01,-0.06 -0.01,-0.16 -0.06,0.1 -0.19,0.2 -0.4,0.2 -0.27,0 -0.44,-0.19 -0.44,-0.39 -0.01,-0.23 0.16,-0.36 0.39,-0.39 z m 0.42,0.2 v -0.06 l -0.34,0.05 c -0.09,0.02 -0.17,0.07 -0.17,0.18 0,0.09 0.07,0.17 0.19,0.17 0.17,0 0.32,-0.09 0.32,-0.34 z"
   id="path20" />
			<path
   d="m 44.06,12.72 h -0.31 v -1.29 h 0.3 v 0.17 c 0.08,-0.15 0.24,-0.21 0.38,-0.21 0.32,0 0.47,0.23 0.47,0.51 v 0.82 h -0.31 v -0.76 c 0,-0.16 -0.07,-0.29 -0.27,-0.29 -0.18,0 -0.27,0.14 -0.27,0.31 v 0.74 z"
   id="path22" />
			<path
   d="M 31.62,15.63 V 14.4 h 0.32 v 1.21 c 0,0.27 0.15,0.41 0.38,0.41 0.24,0 0.39,-0.15 0.39,-0.41 V 14.4 h 0.32 v 1.23 c 0,0.45 -0.31,0.7 -0.7,0.7 -0.4,0 -0.71,-0.24 -0.71,-0.7 z"
   id="path24" />
			<path
   d="M 33.75,16.29 H 33.44 V 15 h 0.3 v 0.17 c 0.08,-0.15 0.24,-0.21 0.38,-0.21 0.32,0 0.47,0.23 0.47,0.51 v 0.82 h -0.31 v -0.76 c 0,-0.16 -0.07,-0.29 -0.26,-0.29 -0.18,0 -0.27,0.14 -0.27,0.31 z"
   id="path26" />
			<path
   d="m 35.16,14.34 c 0.11,0 0.2,0.09 0.2,0.2 0,0.11 -0.09,0.2 -0.2,0.2 -0.11,0 -0.2,-0.09 -0.2,-0.2 0,-0.11 0.09,-0.2 0.2,-0.2 z M 35,16.29 V 15 h 0.31 v 1.29 z"
   id="path28" />
			<path
   d="M 36.4,16.29 H 36.09 L 35.56,15 h 0.34 l 0.34,0.92 0.33,-0.92 h 0.32 z"
   id="path30" />
			<path
   d="m 38.27,15.92 c -0.07,0.23 -0.27,0.41 -0.58,0.41 -0.35,0 -0.66,-0.25 -0.66,-0.69 0,-0.41 0.3,-0.68 0.63,-0.68 0.4,0 0.63,0.26 0.63,0.67 0,0.05 0,0.09 -0.01,0.1 h -0.95 c 0.01,0.2 0.16,0.34 0.35,0.34 0.19,0 0.28,-0.1 0.32,-0.23 z M 37.98,15.5 c -0.01,-0.15 -0.11,-0.29 -0.32,-0.29 -0.19,0 -0.31,0.15 -0.32,0.29 z"
   id="path32" />
			<path
   d="m 39.37,15.3 c -0.04,-0.01 -0.07,-0.01 -0.1,-0.01 -0.24,0 -0.35,0.14 -0.35,0.38 v 0.62 H 38.61 V 15 h 0.3 v 0.21 c 0.06,-0.14 0.2,-0.22 0.37,-0.22 0.04,0 0.07,0.01 0.08,0.01 v 0.3 z"
   id="path34" />
			<path
   d="m 39.82,15.86 c 0.01,0.12 0.1,0.22 0.26,0.22 0.13,0 0.19,-0.07 0.19,-0.15 0,-0.07 -0.05,-0.12 -0.15,-0.14 l -0.19,-0.04 c -0.23,-0.05 -0.35,-0.2 -0.35,-0.38 0,-0.23 0.21,-0.42 0.48,-0.42 0.36,0 0.48,0.23 0.5,0.36 l -0.26,0.07 c -0.01,-0.07 -0.07,-0.19 -0.24,-0.19 -0.11,0 -0.19,0.07 -0.19,0.15 0,0.07 0.05,0.12 0.13,0.14 l 0.2,0.04 c 0.24,0.05 0.37,0.2 0.37,0.39 0,0.2 -0.16,0.41 -0.49,0.41 -0.37,0 -0.52,-0.24 -0.53,-0.39 z"
   id="path36" />
			<path
   d="m 41.06,14.34 c 0.11,0 0.2,0.09 0.2,0.2 0,0.11 -0.09,0.2 -0.2,0.2 -0.11,0 -0.2,-0.09 -0.2,-0.2 0,-0.11 0.09,-0.2 0.2,-0.2 z m -0.15,1.95 V 15 h 0.31 v 1.29 z"
   id="path38" />
			<path
   d="m 42.04,14.99 h 0.27 v 0.27 h -0.27 v 0.6 c 0,0.11 0.05,0.16 0.16,0.16 0.04,0 0.09,-0.01 0.11,-0.01 v 0.25 c -0.02,0.01 -0.08,0.03 -0.19,0.03 -0.24,0 -0.39,-0.14 -0.39,-0.38 v -0.65 h -0.24 v -0.27 h 0.07 c 0.14,0 0.2,-0.09 0.2,-0.2 V 14.6 h 0.28 z"
   id="path40" />
			<path
   d="m 42.74,16.81 0.31,-0.68 -0.55,-1.14 h 0.35 l 0.37,0.82 0.35,-0.82 h 0.33 l -0.82,1.82 z"
   id="path42" />
			<path
   d="m 46.08,15.64 c 0,0.4 -0.28,0.69 -0.67,0.69 -0.38,0 -0.67,-0.29 -0.67,-0.69 0,-0.4 0.28,-0.69 0.67,-0.69 0.38,0 0.67,0.29 0.67,0.69 z m -0.31,0 c 0,-0.27 -0.17,-0.41 -0.36,-0.41 -0.19,0 -0.36,0.14 -0.36,0.41 0,0.27 0.17,0.41 0.36,0.41 0.19,0 0.36,-0.14 0.36,-0.41 z"
   id="path44" />
			<path
   d="m 46.79,14.82 v 0.17 h 0.3 v 0.27 h -0.3 v 1.02 h -0.31 v -1.02 h -0.23 v -0.27 h 0.23 v -0.18 c 0,-0.29 0.19,-0.46 0.45,-0.46 0.08,0 0.14,0.02 0.16,0.03 v 0.26 c -0.02,-0.01 -0.05,-0.01 -0.11,-0.01 -0.08,0 -0.19,0.03 -0.19,0.19 z"
   id="path46" />
			<path
   d="m 31.64,19.85 v -1.88 h 0.32 v 1.58 h 0.86 v 0.3 z"
   id="path48" />
			<path
   d="m 33.27,17.9 c 0.11,0 0.2,0.09 0.2,0.2 0,0.11 -0.09,0.2 -0.2,0.2 -0.11,0 -0.2,-0.09 -0.2,-0.2 0,-0.11 0.09,-0.2 0.2,-0.2 z m -0.15,1.95 v -1.29 h 0.31 v 1.29 z"
   id="path50" />
			<path
   d="m 34.24,18.39 v 0.17 h 0.3 v 0.27 h -0.3 v 1.02 H 33.93 V 18.83 H 33.7 v -0.27 h 0.23 v -0.18 c 0,-0.29 0.19,-0.46 0.45,-0.46 0.08,0 0.14,0.02 0.16,0.03 v 0.26 c -0.02,0 -0.05,-0.01 -0.11,-0.01 -0.09,-0.01 -0.19,0.03 -0.19,0.19 z"
   id="path52" />
			<path
   d="m 35.92,19.48 c -0.07,0.23 -0.27,0.41 -0.58,0.41 -0.35,0 -0.66,-0.25 -0.66,-0.69 0,-0.41 0.3,-0.68 0.63,-0.68 0.4,0 0.63,0.26 0.63,0.67 0,0.05 0,0.09 -0.01,0.1 h -0.95 c 0.01,0.2 0.16,0.34 0.35,0.34 0.19,0 0.28,-0.1 0.32,-0.23 z m -0.3,-0.41 c -0.01,-0.15 -0.11,-0.29 -0.32,-0.29 -0.19,0 -0.31,0.15 -0.32,0.29 z"
   id="path54" />
			<path
   d="m 37.93,18.5 c -0.02,-0.12 -0.12,-0.29 -0.37,-0.29 -0.19,0 -0.32,0.13 -0.32,0.27 0,0.12 0.07,0.21 0.22,0.24 l 0.27,0.06 c 0.33,0.07 0.51,0.28 0.51,0.54 0,0.29 -0.24,0.57 -0.67,0.57 -0.48,0 -0.7,-0.31 -0.73,-0.58 l 0.3,-0.08 c 0.02,0.2 0.16,0.38 0.43,0.38 0.23,0 0.34,-0.11 0.34,-0.26 0,-0.12 -0.09,-0.22 -0.25,-0.25 l -0.27,-0.06 c -0.29,-0.06 -0.48,-0.25 -0.48,-0.53 0,-0.32 0.29,-0.58 0.64,-0.58 0.44,0 0.62,0.27 0.66,0.48 z"
   id="path56" />
			<path
   d="m 38.77,19.21 c 0,0.26 0.17,0.41 0.36,0.41 0.2,0 0.29,-0.14 0.32,-0.24 l 0.27,0.1 c -0.06,0.2 -0.25,0.42 -0.59,0.42 -0.38,0 -0.67,-0.29 -0.67,-0.69 0,-0.4 0.29,-0.69 0.66,-0.69 0.35,0 0.54,0.22 0.59,0.42 l -0.28,0.1 C 39.4,18.93 39.31,18.8 39.12,18.8 c -0.19,0.01 -0.35,0.15 -0.35,0.41 z"
   id="path58" />
			<path
   d="m 40.18,17.9 c 0.11,0 0.2,0.09 0.2,0.2 0,0.11 -0.09,0.2 -0.2,0.2 -0.11,0 -0.2,-0.09 -0.2,-0.2 0,-0.11 0.09,-0.2 0.2,-0.2 z m -0.15,1.95 v -1.29 h 0.31 v 1.29 z"
   id="path60" />
			<path
   d="m 41.91,19.48 c -0.07,0.23 -0.27,0.41 -0.58,0.41 -0.35,0 -0.66,-0.25 -0.66,-0.69 0,-0.41 0.3,-0.68 0.63,-0.68 0.4,0 0.63,0.26 0.63,0.67 0,0.05 0,0.09 -0.01,0.1 h -0.95 c 0.01,0.2 0.16,0.34 0.35,0.34 0.19,0 0.28,-0.1 0.32,-0.23 z m -0.3,-0.41 c -0.01,-0.15 -0.11,-0.29 -0.32,-0.29 -0.19,0 -0.31,0.15 -0.32,0.29 z"
   id="path62" />
			<path
   d="m 42.56,19.85 h -0.31 v -1.29 h 0.3 v 0.17 c 0.08,-0.15 0.24,-0.21 0.38,-0.21 0.32,0 0.47,0.23 0.47,0.51 v 0.82 h -0.31 v -0.76 c 0,-0.16 -0.07,-0.29 -0.27,-0.29 -0.18,0 -0.27,0.14 -0.27,0.31 v 0.74 z"
   id="path64" />
			<path
   d="m 44.02,19.21 c 0,0.26 0.17,0.41 0.36,0.41 0.2,0 0.29,-0.14 0.32,-0.24 l 0.27,0.1 c -0.06,0.2 -0.25,0.42 -0.59,0.42 -0.38,0 -0.67,-0.29 -0.67,-0.69 0,-0.4 0.29,-0.69 0.66,-0.69 0.35,0 0.54,0.22 0.59,0.42 l -0.28,0.1 c -0.03,-0.11 -0.12,-0.24 -0.31,-0.24 -0.19,0.01 -0.35,0.15 -0.35,0.41 z"
   id="path66" />
			<path
   d="m 46.41,19.48 c -0.07,0.23 -0.27,0.41 -0.58,0.41 -0.35,0 -0.66,-0.25 -0.66,-0.69 0,-0.41 0.3,-0.68 0.63,-0.68 0.4,0 0.63,0.26 0.63,0.67 0,0.05 0,0.09 -0.01,0.1 h -0.95 c 0.01,0.2 0.16,0.34 0.35,0.34 0.19,0 0.28,-0.1 0.32,-0.23 z m -0.29,-0.41 c -0.01,-0.15 -0.11,-0.29 -0.32,-0.29 -0.19,0 -0.31,0.15 -0.32,0.29 z"
   id="path68" />
			<path
   d="m 46.91,19.43 c 0.01,0.12 0.1,0.22 0.26,0.22 0.13,0 0.19,-0.07 0.19,-0.15 0,-0.07 -0.05,-0.12 -0.15,-0.14 l -0.19,-0.04 c -0.23,-0.05 -0.35,-0.2 -0.35,-0.38 0,-0.23 0.21,-0.42 0.48,-0.42 0.36,0 0.48,0.23 0.5,0.36 l -0.26,0.07 c -0.01,-0.07 -0.07,-0.19 -0.24,-0.19 -0.11,0 -0.19,0.07 -0.19,0.15 0,0.07 0.05,0.12 0.13,0.13 l 0.2,0.04 c 0.24,0.05 0.37,0.2 0.37,0.39 0,0.2 -0.16,0.41 -0.49,0.41 -0.37,0 -0.52,-0.24 -0.53,-0.39 z"
   id="path70" />
		</g>
	</g>
</g>
</svg>
